<?xml version="1.0" encoding="utf-8"?>
<!-- Generator: Adobe Illustrator 19.0.0, SVG Export Plug-In . SVG Version: 6.00 Build 0)  -->
<svg version="1.1" id="Camada_1" xmlns="http://www.w3.org/2000/svg" xmlns:xlink="http://www.w3.org/1999/xlink" x="0px" y="0px"
	 viewBox="-413 265 133 31" style="enable-background:new -413 265 133 31;" xml:space="preserve">
<style type="text/css">
	.st0{font-family:'Billabong';}
	.st1{font-size:26.7936px;}
</style>
<title>logo</title>
<desc>Created with Sketch.</desc>
<g>
	<path id="_xF16D_" d="M-392.7,279.6c0-2.5-2.1-4.6-4.6-4.6c-2.5,0-4.6,2.1-4.6,4.6s2.1,4.6,4.6,4.6
		C-394.8,284.1-392.7,282.1-392.7,279.6z M-390.2,279.6c0,3.9-3.1,7-7,7c-3.9,0-7-3.1-7-7s3.1-7,7-7
		C-393.4,272.5-390.2,275.7-390.2,279.6z M-388.3,272.2c0,0.9-0.7,1.6-1.6,1.6s-1.6-0.7-1.6-1.6c0-0.9,0.7-1.6,1.6-1.6
		S-388.3,271.3-388.3,272.2z M-397.3,268.3c-2,0-6.3-0.2-8.1,0.6c-0.6,0.3-1.1,0.6-1.6,1c-0.5,0.5-0.8,0.9-1,1.6
		c-0.7,1.8-0.6,6.1-0.6,8.1s-0.2,6.3,0.6,8.1c0.3,0.6,0.6,1.1,1,1.6c0.5,0.5,0.9,0.8,1.6,1c1.8,0.7,6.1,0.6,8.1,0.6s6.3,0.2,8.1-0.6
		c0.6-0.3,1.1-0.6,1.6-1s0.8-0.9,1-1.6c0.7-1.8,0.6-6.1,0.6-8.1s0.2-6.3-0.6-8.1c-0.3-0.6-0.6-1.1-1-1.6c-0.5-0.5-0.9-0.8-1.6-1
		C-391,268.2-395.3,268.3-397.3,268.3z M-383.6,279.6c0,1.9,0,3.8-0.1,5.7c-0.1,2.2-0.6,4.1-2.2,5.8s-3.6,2.1-5.8,2.2
		c-1.9,0.1-3.8,0.1-5.7,0.1s-3.8,0-5.7-0.1c-2.2-0.1-4.1-0.6-5.8-2.2c-1.6-1.6-2.1-3.6-2.2-5.8c-0.1-1.9-0.1-3.8-0.1-5.7
		s0-3.8,0.1-5.7c0.1-2.2,0.6-4.1,2.2-5.8c1.6-1.6,3.6-2.1,5.8-2.2c1.9-0.1,3.8-0.1,5.7-0.1s3.8,0,5.7,0.1c2.2,0.1,4.1,0.6,5.8,2.2
		s2.1,3.6,2.2,5.8C-383.6,275.8-383.6,277.7-383.6,279.6z"/>
	<text transform="matrix(1 0 0 1 -383.3771 288.6075)" class="st0 st1">InstaRocket</text>
</g>
</svg>
